<?xml version="1.0" encoding="UTF-8"?>
<svg width="638px" height="115px" viewBox="0 0 638 115" version="1.1" xmlns="http://www.w3.org/2000/svg" xmlns:xlink="http://www.w3.org/1999/xlink">
    <title>faucet black</title>
    <defs>
        <path d="M10.6291966,0 L10.6291966,23.9390218 C14.4616912,18.9590063 19.1652073,17.4737386 24.0429277,17.4737386 C36.2372288,17.4737386 41.6375621,25.7737644 41.6375621,38.4422249 L41.6277153,54.7147148 C38.0812651,55.0950033 34.5399932,55.4925156 31.0039856,55.9071661 L31.0110998,38.5295935 C31.0110998,30.6664112 26.9172987,27.3464009 21.2556589,27.3464009 C14.9843041,27.3464009 10.6291966,32.6758911 10.6291966,39.1411744 L10.6193429,58.494873 C7.0743294,58.9793102 3.53483774,59.4810077 0.000956112559,59.9998777 L0.00273422702,0 L10.6291966,0 Z M298.273161,16.8621577 C304.980026,16.8621577 310.031951,18.1726881 314.996774,22.5411228 L309.073827,29.5306182 C306.025252,26.6474513 302.541166,25.6863957 298.447365,25.6863957 C293.39544,25.6863957 290.608171,27.2590322 290.608171,29.9674616 C290.608171,32.7632598 293.134134,34.3358963 298.621569,34.6853711 C306.722069,35.2095832 317.000123,37.0443258 317.000123,48.4896245 C317.000123,52.7931751 315.017725,56.7606471 311.068737,59.3930721 L311.075947,59.3704258 C300.436609,57.8526831 289.74688,56.4905158 279.009155,55.2863115 L278.675177,54.9549078 L283.901306,47.3538315 C286.949881,50.7612105 293.918053,53.2949026 298.708671,53.3822713 C302.71537,53.46964 306.460763,51.3727914 306.460763,48.2275184 C306.460763,45.2569829 304.021903,44.0338212 297.924752,43.6843464 C289.824252,43.0727656 280.155913,40.10223 280.155913,30.3169364 C280.155913,20.3569054 290.433967,16.8621577 298.273161,16.8621577 Z M254.384565,17.3863699 C264.488414,17.3863699 272.588914,24.9874462 272.588914,38.5295935 L272.598566,54.586772 C269.05918,54.2112408 265.514649,53.8528631 261.965058,53.5117242 L261.962452,38.6169622 C261.962452,32.0643103 258.391264,27.0842948 251.597296,27.0842948 C245.064635,27.0842948 240.622425,32.5885224 240.622425,39.1411744 L240.630581,51.6741934 C237.120779,51.4068193 233.60625,51.1562766 230.087076,50.9226462 L230.083065,17.9979507 L239.577199,17.9979507 L240.274016,23.8516531 C244.629124,19.5705872 248.984231,17.3863699 254.384565,17.3863699 Z M59.918126,18.0853194 L59.918126,42.9517242 C59.918126,47.0581134 61.3206126,50.5468925 64.0398392,52.579472 L64.0312631,52.5481476 C59.7742104,52.9151621 55.5242731,53.3069539 51.2815971,53.7233774 C50.0016365,50.7397806 49.2916636,47.1544211 49.2916636,43.0390929 L49.2916636,18.0853194 L59.918126,18.0853194 Z M91.797513,18.0853194 L91.7902242,50.5136204 C87.072054,50.7986622 82.3621185,51.1140949 77.6606124,51.4597247 L77.6711422,51.4948018 C79.9350559,49.2675041 81.2581528,46.0036429 81.2581528,42.4275121 L81.2581528,18.0853194 L91.797513,18.0853194 Z M197.866157,17.0368951 C203.614899,17.0368951 209.102334,19.7453246 211.541194,24.0263905 L211.889603,18.0853194 L222.080555,18.0853194 L222.089118,50.4213018 C217.135274,50.1291066 212.172382,49.8704122 207.200667,49.6454426 L207.195307,49.668217 C214.798794,42.7958377 212.008452,26.5600826 198.82428,26.5600826 C191.769006,26.5600826 186.107366,31.3653607 186.107366,39.5780179 C186.107366,43.5677029 187.443507,46.7738694 189.626471,49.0162184 L189.632125,48.9922668 C185.379258,48.8684205 181.120181,48.7692416 176.855031,48.6948684 L176.851811,48.7062248 C175.96133,46.0392128 175.480904,42.9937882 175.480904,39.5780179 C175.480904,24.7253401 185.323447,16.9495264 197.866157,17.0368951 Z M122.446582,17.2990012 C127.585609,17.2990012 132.724636,19.3958498 135.163496,25.3369209 C138.995991,19.2211124 143.960813,17.4737386 149.535351,17.4737386 C161.729652,17.4737386 167.7397,24.9874462 167.7397,37.9180127 L167.748046,48.5738976 C164.406619,48.5433833 161.061541,48.528093 157.712878,48.528093 L157.113,48.533 L157.113238,37.9180127 C157.113238,32.2390477 154.76148,27.4337696 149.012738,27.4337696 C143.263996,27.4337696 139.692808,32.413785 139.692808,38.0927501 L139.691743,48.6758944 C136.142912,48.7341453 132.598274,48.8095694 129.057909,48.9020871 L129.066346,38.0927501 C129.066346,32.413785 126.104873,27.2590322 120.269028,27.2590322 C114.520287,27.2590322 111.123303,32.413785 111.123303,38.0927501 L111.11518,49.5185088 C107.568929,49.6695476 104.027138,49.8377433 100.489889,50.0230148 L100.49684,17.9979507 L110.339383,17.9979507 L111.123303,23.2400723 C113.387959,18.8716377 118.352781,17.2990012 122.446582,17.2990012 Z" id="path-1"></path>
    </defs>
    <g id="Page-1" stroke="none" stroke-width="1" fill="none" fill-rule="evenodd">
        <g id="Artboard" transform="translate(-836.000000, -1010.000000)">
            <g id="faucet-black" transform="translate(836.000000, 1011.000000)">
                <g id="Bitmap-Copy-21" transform="translate(0.000000, 16.000000)">
                    <mask id="mask-2" fill="white">
                        <use xlink:href="#path-1"></use>
                    </mask>
                    <use id="Mask" fill="#000000" xlink:href="#path-1"></use>
                </g>
                <line x1="350.500123" y1="112.5" x2="350.500123" y2="0.5" id="Line-Copy-8" stroke="#000000" stroke-width="2" opacity="0.343308222" stroke-linecap="square"></line>
                <g id="FAUCET" transform="translate(388.656123, 36.440000)" fill="#000000" fill-rule="nonzero">
                    <polygon id="Path" points="32.928 0.96 0 0.96 0 34.56 2.784 34.56 2.784 21.024 30.048 21.024 30.048 18.48 2.784 18.48 2.784 3.504 32.928 3.504"></polygon>
                    <path d="M75.408,34.56 L55.392,0.96 L51.984,0.96 L32.016,34.56 L35.184,34.56 L40.272,25.968 L67.104,25.968 L72.192,34.56 L75.408,34.56 Z M53.712,3.312 L65.568,23.376 L41.808,23.376 L53.712,3.312 Z" id="Shape"></path>
                    <path d="M117.6,0.96 L114.816,0.96 L114.816,18.192 C114.816,25.392 112.32,32.976 98.064,32.976 C83.856,32.976 81.36,25.44 81.36,18.192 L81.36,0.96 L78.576,0.96 L78.576,18.192 C78.576,28.272 83.28,35.52 98.064,35.52 C112.8,35.52 117.6,28.272 117.6,18.192 L117.6,0.96 Z" id="Path"></path>
                    <path d="M124.368,17.712 C124.368,28.464 131.856,35.52 144.864,35.52 C156.144,35.52 162.768,29.568 163.872,22.512 L160.896,22.512 C159.888,27.696 154.848,32.976 144.864,32.976 C133.632,32.976 127.296,27.072 127.296,17.712 C127.296,8.4 133.584,2.544 144.864,2.544 C154.896,2.544 159.888,7.776 160.896,12.912 L163.824,12.912 C162.768,5.904 156.144,0 144.864,0 C131.856,0 124.368,7.008 124.368,17.712 Z" id="Path"></path>
                    <polygon id="Path" points="204.144 0.96 171.216 0.96 171.216 34.56 204.144 34.56 204.144 32.016 174 32.016 174 19.056 203.184 19.056 203.184 16.464 174 16.464 174 3.504 204.144 3.504"></polygon>
                    <polygon id="Path" points="248.784 0.96 210.096 0.96 210.096 3.504 228.048 3.504 228.048 34.56 230.832 34.56 230.832 3.504 248.784 3.504"></polygon>
                </g>
            </g>
        </g>
    </g>
</svg>