<svg width="127" height="24" viewBox="0 0 127 24" fill="none" xmlns="http://www.w3.org/2000/svg">
<path fill-rule="evenodd" clip-rule="evenodd" d="M4.23407 0H0V24C1.40913 23.7914 2.82049 23.5897 4.23407 23.3949V15.6177C4.23407 13.038 5.96935 10.9115 8.46814 10.9115C10.724 10.9115 12.3552 12.2362 12.3552 15.3737V22.3548C13.7644 22.188 15.1758 22.028 16.5892 21.8748V15.3388C16.5892 10.284 14.4375 6.9722 9.57872 6.9722C7.63521 6.9722 5.76111 7.56484 4.23407 9.55192V0ZM44.2756 19.7757C42.8624 19.8372 41.451 19.9057 40.0415 19.9809V7.18139H43.9632L44.2756 9.27305C45.1779 7.52999 47.1561 6.9025 48.7873 6.9025C50.8349 6.9025 52.8825 7.73916 53.8543 10.1097C55.3813 7.66944 57.3595 6.97222 59.5807 6.97222C64.4395 6.97222 66.8341 9.97027 66.8341 15.1297V19.378C65.6381 19.3681 64.4408 19.3632 63.2424 19.3632C63.0283 19.3632 62.8141 19.3634 62.6001 19.3637V15.1297C62.6001 12.8637 61.663 10.9464 59.3724 10.9464C57.0819 10.9464 55.659 12.9335 55.659 15.1994V19.429C54.2459 19.4535 52.8345 19.4849 51.4249 19.5231V15.1994C51.4249 12.9335 50.2449 10.8767 47.9196 10.8767C45.6291 10.8767 44.2756 12.9335 44.2756 15.1994V19.7757ZM88.486 20.0948V7.2162H84.4255L84.2866 9.58675C83.3149 7.87856 81.1284 6.79787 78.8379 6.79787C73.8403 6.76301 69.9186 9.86564 69.9186 15.792C69.9186 17.1501 70.1086 18.3614 70.461 19.4228C72.1544 19.4508 73.8453 19.4886 75.5338 19.5362C74.6765 18.6426 74.1527 17.3711 74.1527 15.792C74.1527 12.5151 76.4085 10.5977 79.2197 10.5977C84.4563 10.5977 85.5776 17.0353 82.5835 19.7921C84.5545 19.8797 86.522 19.9806 88.486 20.0948ZM95.8739 20.5877C94.476 20.4824 93.0762 20.3838 91.6746 20.2919V7.18133H95.4575L95.7351 9.51702C97.4704 7.80883 99.2057 6.9373 101.357 6.9373C105.383 6.9373 108.611 9.97021 108.611 15.3737V21.7376C107.202 21.5892 105.79 21.4477 104.377 21.313V15.4085C104.377 12.794 102.954 10.8069 100.247 10.8069C97.6439 10.8069 95.8739 13.0031 95.8739 15.6177V20.5877ZM124.024 23.6431C119.741 23.0346 115.437 22.4894 111.114 22.0086C111.088 21.9818 111.062 21.9548 111.036 21.9276L113.118 18.8946C114.333 20.2542 117.109 21.2652 119.018 21.3001C120.615 21.3349 122.107 20.4983 122.107 19.2433C122.107 18.058 121.135 17.5699 118.706 17.4305C115.478 17.1865 111.626 16.0012 111.626 12.0967C111.626 8.12259 115.721 6.72815 118.845 6.72815C121.517 6.72815 123.53 7.25107 125.508 8.99412L123.148 11.783C121.933 10.6326 120.545 10.2491 118.914 10.2491C116.901 10.2491 115.791 10.8766 115.791 11.9573C115.791 13.0729 116.797 13.7004 118.983 13.8398C122.211 14.049 126.306 14.781 126.306 19.3478C126.306 21.0351 125.544 22.593 124.024 23.6431ZM36.5753 20.1799C34.69 20.2957 32.808 20.4237 30.9294 20.5638C31.842 19.6748 32.3759 18.365 32.3759 16.929V7.2162H36.5753V20.1799ZM25.5422 20.9996C23.8413 21.148 22.1432 21.3063 20.4481 21.4744C19.9274 20.2737 19.639 18.8312 19.639 17.173V7.2162H23.873V17.1382C23.873 18.7901 24.4411 20.1916 25.5422 20.9996Z" fill="black"/>
</svg>
